<mxfile host="Electron" modified="2024-01-16T00:04:17.492Z" agent="Mozilla/5.0 (Windows NT 10.0; Win64; x64) AppleWebKit/537.36 (KHTML, like Gecko) draw.io/22.1.18 Chrome/120.0.6099.199 Electron/28.1.2 Safari/537.36" etag="7kYCHZFpkTqw57rc-sje" version="22.1.18" type="device">
  <diagram name="Page-1" id="zJVBtpFojGTxBizy_1x7">
    <mxGraphModel dx="451" dy="264" grid="0" gridSize="10" guides="1" tooltips="1" connect="1" arrows="1" fold="1" page="1" pageScale="1" pageWidth="850" pageHeight="1100" math="0" shadow="0">
      <root>
        <mxCell id="0" />
        <mxCell id="1" parent="0" />
        <mxCell id="jlsJJBMwK7GmdBUNqS4n-15" value="" style="rounded=0;whiteSpace=wrap;html=1;fillColor=none;dashed=1;" vertex="1" parent="1">
          <mxGeometry x="220" y="210" width="160" height="170" as="geometry" />
        </mxCell>
        <mxCell id="jlsJJBMwK7GmdBUNqS4n-14" value="" style="rounded=0;whiteSpace=wrap;html=1;fillColor=none;dashed=1;" vertex="1" parent="1">
          <mxGeometry x="420" y="210" width="150" height="170" as="geometry" />
        </mxCell>
        <mxCell id="jlsJJBMwK7GmdBUNqS4n-1" value="" style="verticalLabelPosition=bottom;shadow=0;dashed=0;align=center;html=1;verticalAlign=top;shape=mxgraph.electrical.abstract.amplifier;" vertex="1" parent="1">
          <mxGeometry x="330" y="240" width="40" height="40" as="geometry" />
        </mxCell>
        <mxCell id="jlsJJBMwK7GmdBUNqS4n-2" value="" style="verticalLabelPosition=bottom;shadow=0;dashed=0;align=center;html=1;verticalAlign=top;shape=mxgraph.electrical.abstract.dac;" vertex="1" parent="1">
          <mxGeometry x="240" y="240" width="70" height="40" as="geometry" />
        </mxCell>
        <mxCell id="jlsJJBMwK7GmdBUNqS4n-3" style="edgeStyle=orthogonalEdgeStyle;rounded=0;orthogonalLoop=1;jettySize=auto;html=1;exitX=1;exitY=0.5;exitDx=0;exitDy=0;exitPerimeter=0;entryX=0;entryY=0.5;entryDx=0;entryDy=0;entryPerimeter=0;endArrow=none;endFill=0;" edge="1" parent="1" source="jlsJJBMwK7GmdBUNqS4n-2" target="jlsJJBMwK7GmdBUNqS4n-1">
          <mxGeometry relative="1" as="geometry" />
        </mxCell>
        <mxCell id="jlsJJBMwK7GmdBUNqS4n-4" value="" style="verticalLabelPosition=bottom;shadow=0;dashed=0;align=center;html=1;verticalAlign=top;shape=mxgraph.electrical.abstract.amplifier;" vertex="1" parent="1">
          <mxGeometry x="330" y="320" width="40" height="40" as="geometry" />
        </mxCell>
        <mxCell id="jlsJJBMwK7GmdBUNqS4n-5" value="" style="verticalLabelPosition=bottom;shadow=0;dashed=0;align=center;html=1;verticalAlign=top;shape=mxgraph.electrical.abstract.dac;" vertex="1" parent="1">
          <mxGeometry x="240" y="320" width="70" height="40" as="geometry" />
        </mxCell>
        <mxCell id="jlsJJBMwK7GmdBUNqS4n-6" style="edgeStyle=orthogonalEdgeStyle;rounded=0;orthogonalLoop=1;jettySize=auto;html=1;exitX=1;exitY=0.5;exitDx=0;exitDy=0;exitPerimeter=0;entryX=0;entryY=0.5;entryDx=0;entryDy=0;entryPerimeter=0;endArrow=none;endFill=0;" edge="1" source="jlsJJBMwK7GmdBUNqS4n-5" target="jlsJJBMwK7GmdBUNqS4n-4" parent="1">
          <mxGeometry relative="1" as="geometry" />
        </mxCell>
        <mxCell id="jlsJJBMwK7GmdBUNqS4n-7" value="" style="verticalLabelPosition=bottom;shadow=0;dashed=0;align=center;html=1;verticalAlign=top;shape=mxgraph.electrical.abstract.amplifier;" vertex="1" parent="1">
          <mxGeometry x="440" y="240" width="40" height="40" as="geometry" />
        </mxCell>
        <mxCell id="jlsJJBMwK7GmdBUNqS4n-8" value="" style="verticalLabelPosition=bottom;shadow=0;dashed=0;align=center;html=1;verticalAlign=top;shape=mxgraph.electrical.abstract.amplifier;" vertex="1" parent="1">
          <mxGeometry x="440" y="320" width="40" height="40" as="geometry" />
        </mxCell>
        <mxCell id="jlsJJBMwK7GmdBUNqS4n-9" style="edgeStyle=orthogonalEdgeStyle;rounded=0;orthogonalLoop=1;jettySize=auto;html=1;exitX=1;exitY=0.5;exitDx=0;exitDy=0;exitPerimeter=0;entryX=0;entryY=0.5;entryDx=0;entryDy=0;entryPerimeter=0;endArrow=none;endFill=0;" edge="1" parent="1" source="jlsJJBMwK7GmdBUNqS4n-1" target="jlsJJBMwK7GmdBUNqS4n-7">
          <mxGeometry relative="1" as="geometry" />
        </mxCell>
        <mxCell id="jlsJJBMwK7GmdBUNqS4n-10" style="edgeStyle=orthogonalEdgeStyle;rounded=0;orthogonalLoop=1;jettySize=auto;html=1;exitX=1;exitY=0.5;exitDx=0;exitDy=0;exitPerimeter=0;entryX=0;entryY=0.5;entryDx=0;entryDy=0;entryPerimeter=0;endArrow=none;endFill=0;" edge="1" parent="1" source="jlsJJBMwK7GmdBUNqS4n-4" target="jlsJJBMwK7GmdBUNqS4n-8">
          <mxGeometry relative="1" as="geometry" />
        </mxCell>
        <mxCell id="jlsJJBMwK7GmdBUNqS4n-11" value="DETECTOR" style="rounded=0;whiteSpace=wrap;html=1;rotation=90;" vertex="1" parent="1">
          <mxGeometry x="479" y="280" width="120" height="40" as="geometry" />
        </mxCell>
        <mxCell id="jlsJJBMwK7GmdBUNqS4n-13" style="edgeStyle=orthogonalEdgeStyle;rounded=0;orthogonalLoop=1;jettySize=auto;html=1;exitX=1;exitY=0.5;exitDx=0;exitDy=0;exitPerimeter=0;entryX=0.828;entryY=1.019;entryDx=0;entryDy=0;entryPerimeter=0;endArrow=none;endFill=0;" edge="1" parent="1" source="jlsJJBMwK7GmdBUNqS4n-8" target="jlsJJBMwK7GmdBUNqS4n-11">
          <mxGeometry relative="1" as="geometry" />
        </mxCell>
        <mxCell id="jlsJJBMwK7GmdBUNqS4n-16" style="edgeStyle=orthogonalEdgeStyle;rounded=0;orthogonalLoop=1;jettySize=auto;html=1;exitX=1;exitY=0.5;exitDx=0;exitDy=0;exitPerimeter=0;entryX=0.159;entryY=1;entryDx=0;entryDy=0;entryPerimeter=0;endArrow=none;endFill=0;" edge="1" parent="1" source="jlsJJBMwK7GmdBUNqS4n-7" target="jlsJJBMwK7GmdBUNqS4n-11">
          <mxGeometry relative="1" as="geometry" />
        </mxCell>
        <mxCell id="jlsJJBMwK7GmdBUNqS4n-17" value="Analog Module" style="text;html=1;strokeColor=none;fillColor=none;align=center;verticalAlign=middle;whiteSpace=wrap;rounded=0;" vertex="1" parent="1">
          <mxGeometry x="245" y="210" width="110" height="20" as="geometry" />
        </mxCell>
        <mxCell id="jlsJJBMwK7GmdBUNqS4n-18" value="Interface Module" style="text;html=1;strokeColor=none;fillColor=none;align=center;verticalAlign=middle;whiteSpace=wrap;rounded=0;" vertex="1" parent="1">
          <mxGeometry x="440" y="210" width="110" height="20" as="geometry" />
        </mxCell>
        <mxCell id="jlsJJBMwK7GmdBUNqS4n-19" value="" style="endArrow=classic;html=1;rounded=0;entryX=0;entryY=0.5;entryDx=0;entryDy=0;entryPerimeter=0;dashed=1;" edge="1" parent="1" target="jlsJJBMwK7GmdBUNqS4n-2">
          <mxGeometry width="50" height="50" relative="1" as="geometry">
            <mxPoint x="200" y="260" as="sourcePoint" />
            <mxPoint x="190" y="230" as="targetPoint" />
          </mxGeometry>
        </mxCell>
        <mxCell id="jlsJJBMwK7GmdBUNqS4n-20" value="" style="endArrow=classic;html=1;rounded=0;dashed=1;" edge="1" parent="1" target="jlsJJBMwK7GmdBUNqS4n-5">
          <mxGeometry width="50" height="50" relative="1" as="geometry">
            <mxPoint x="200" y="340" as="sourcePoint" />
            <mxPoint x="200" y="290" as="targetPoint" />
          </mxGeometry>
        </mxCell>
        <mxCell id="jlsJJBMwK7GmdBUNqS4n-21" value="&lt;font style=&quot;font-size: 10px;&quot;&gt;From Controller&lt;/font&gt;" style="text;html=1;strokeColor=none;fillColor=none;align=center;verticalAlign=middle;whiteSpace=wrap;rounded=0;rotation=-90;" vertex="1" parent="1">
          <mxGeometry x="144" y="282" width="90" height="30" as="geometry" />
        </mxCell>
        <mxCell id="jlsJJBMwK7GmdBUNqS4n-22" value="2" style="text;html=1;strokeColor=none;fillColor=none;align=center;verticalAlign=middle;whiteSpace=wrap;rounded=0;" vertex="1" parent="1">
          <mxGeometry x="440" y="325" width="30" height="30" as="geometry" />
        </mxCell>
        <mxCell id="jlsJJBMwK7GmdBUNqS4n-23" value="&lt;font style=&quot;font-size: 10px;&quot;&gt;V&lt;sub&gt;WL&lt;br&gt;0-8.192V&lt;br&gt;&lt;/sub&gt;&lt;/font&gt;" style="text;html=1;strokeColor=none;fillColor=none;align=center;verticalAlign=middle;whiteSpace=wrap;rounded=0;" vertex="1" parent="1">
          <mxGeometry x="470" y="243" width="50" height="30" as="geometry" />
        </mxCell>
        <mxCell id="jlsJJBMwK7GmdBUNqS4n-24" value="&lt;font style=&quot;font-size: 10px;&quot;&gt;V&lt;/font&gt;&lt;font style=&quot;font-size: 8.33333px;&quot;&gt;SRC&lt;br&gt;0-14V&lt;br&gt;&lt;/font&gt;" style="text;html=1;strokeColor=none;fillColor=none;align=center;verticalAlign=middle;whiteSpace=wrap;rounded=0;" vertex="1" parent="1">
          <mxGeometry x="470" y="324" width="50" height="30" as="geometry" />
        </mxCell>
        <mxCell id="jlsJJBMwK7GmdBUNqS4n-25" value="&lt;font style=&quot;font-size: 10px;&quot;&gt;V&lt;sub&gt;WL&lt;/sub&gt;&amp;nbsp;DAC&lt;/font&gt;" style="text;html=1;strokeColor=none;fillColor=none;align=center;verticalAlign=middle;whiteSpace=wrap;rounded=0;" vertex="1" parent="1">
          <mxGeometry x="234" y="250" width="66" height="20" as="geometry" />
        </mxCell>
        <mxCell id="jlsJJBMwK7GmdBUNqS4n-26" value="&lt;font style=&quot;font-size: 10px;&quot;&gt;V&lt;sub&gt;WL&lt;/sub&gt;&amp;nbsp;DAC&lt;/font&gt;" style="text;html=1;strokeColor=none;fillColor=none;align=center;verticalAlign=middle;whiteSpace=wrap;rounded=0;" vertex="1" parent="1">
          <mxGeometry x="234" y="330" width="66" height="20" as="geometry" />
        </mxCell>
      </root>
    </mxGraphModel>
  </diagram>
</mxfile>
